# xmcd CD database file
#
# Track frame offsets:
#	182
#	14187
#	27895
#	42032
#	56255
#	71622
#	86192
#	99350
#	113192
#	127445
#	141827
#	156035
#	170675
#	185625
#
# Disc length: 2655 seconds
#
# Revision: 0
# Processed by: cddbd v1.5.2PL0 Copyright (c) Steve Scherf et al.
# Submitted via: CDex 1.70beta2
#
DISCID=c80a5d0e
DTITLE=Mildred Bailey - Me And The Blues
DYEAR=2000
DGENRE=Jazz
TTITLE0=In Love In Vain
TTITLE1=It's A W0mon's Prerogative
TTITLE2=I'll Close My Eyes
TTITLE3=Me And The Blues
TTITLE4=At Sundown
TTITLE5=Lover Come Back To Me
TTITLE6=Born To Be Blue
TTITLE7=You Started Something
TTITLE8=Can't We Be Friends
TTITLE9=All That Glitters Is Not Gold
TTITLE10=Almost Like Being In Love
TTITLE11=The Heather On The Hill
TTITLE12=Gone On That Guy
TTITLE13=Don't Worry 'Bout Stangers
EXTD=YEAR: 2000
EXTT0=
EXTT1=
EXTT2=
EXTT3=
EXTT4=
EXTT5=
EXTT6=
EXTT7=
EXTT8=
EXTT9=
EXTT10=
EXTT11=
EXTT12=
EXTT13=
PLAYORDER=
